<svg class="svg-icon" style="width: 1em; height: 1em;vertical-align: middle;fill: currentColor;overflow: hidden;" viewBox="0 0 1024 1024" version="1.1" xmlns="http://www.w3.org/2000/svg"><path d="M682.666667 955.733333H170.666667c-66.030933 0-102.4-36.369067-102.4-102.4V341.333333c0-66.030933 36.369067-102.4 102.4-102.4h512c66.030933 0 102.4 36.369067 102.4 102.4v512c0 66.030933-36.369067 102.4-102.4 102.4zM102.5536 860.245333C104.567467 902.6048 125.832533 921.6 170.666667 921.6h512c47.223467 0 68.266667-21.0432 68.266666-68.266667v-163.601066l-153.6-153.6L450.798933 682.666667l74.120534 74.120533a17.0496 17.0496 0 1 1-24.132267 24.132267L341.333333 621.4656 102.5536 860.245333zM170.666667 273.066667c-47.223467 0-68.266667 21.0432-68.266667 68.266666v470.801067l226.8672-226.8672a17.0496 17.0496 0 0 1 24.132267 0L426.666667 658.5344l158.600533-158.600533a17.0496 17.0496 0 0 1 24.132267 0L750.933333 641.467733V341.333333c0-47.223467-21.0432-68.266667-68.266666-68.266666H170.666667z m170.666666 256c-27.904 0-52.343467-10.2912-72.6528-30.600534C248.9344 478.737067 238.933333 454.587733 238.933333 426.666667c0-27.8016 9.949867-52.1728 29.5424-72.448C289.160533 334.216533 313.531733 324.266667 341.333333 324.266667c27.904 0 52.0704 10.001067 71.799467 29.7472C433.442133 374.3232 443.733333 398.762667 443.733333 426.666667c0 28.023467-10.359467 52.241067-30.805333 72.004266C393.5744 518.7072 369.3568 529.066667 341.333333 529.066667z m0-170.666667c-18.8928 0-34.850133 6.519467-48.708266 19.950933C279.586133 391.816533 273.066667 407.773867 273.066667 426.666667c0 18.7904 6.4512 34.389333 19.746133 47.650133C306.688 488.192 322.542933 494.933333 341.333333 494.933333c18.670933 0 34.184533-6.673067 47.4624-20.394666C402.926933 460.8512 409.6 445.3376 409.6 426.666667c0-18.7904-6.741333-34.645333-20.599467-48.520534C375.722667 364.8512 360.123733 358.4 341.333333 358.4z m512-85.333333a17.066667 17.066667 0 0 1-17.066666-17.066667v-68.266667h-68.266667a17.066667 17.066667 0 1 1 0-34.133333h68.266667V85.333333a17.066667 17.066667 0 1 1 34.133333 0v68.266667h68.266667a17.066667 17.066667 0 1 1 0 34.133333h-68.266667v68.266667a17.066667 17.066667 0 0 1-17.066667 17.066667z"  /></svg>